<svg width="154" height="169" viewBox="0 0 154 169" fill="none" xmlns="http://www.w3.org/2000/svg">
<path d="M39.8149 35.5495C26.1483 35.2162 -2.30188 39.1156 1.31492 56.0495C12.3145 107.55 55.3149 96.5495 55.3149 96.5495M39.8149 35.5495C44.2153 25.5494 66.3148 18.7162 76.8145 16.5496C83.8993 14.9927 94.8581 14.1144 103.814 18.0856M39.8149 35.5495C35.7423 42.3369 36.2578 52.1329 38.8145 61.9327M80.3145 104.55C82.6478 109.716 90.3145 119.55 102.314 117.55C112.476 115.856 113.316 105.677 112.12 98.5497M80.3145 104.55C78.9811 101.383 76.1145 94.4497 75.3145 92.0497M80.3145 104.55C73.2014 105.498 68.4392 104.619 64.3145 102.497M111.314 95.0496C109.314 96.7163 104.514 100.05 101.314 100.05C97.3145 100.05 108.926 102.05 112.12 98.5497M111.314 95.0496C111.621 96.0709 111.904 97.2603 112.12 98.5497M111.314 95.0496C112.648 101.05 117.814 115.15 127.814 123.55M111.314 95.0496C114.634 92.0516 119.549 83.991 121.261 70.5497M98.3145 81.5497C97.9811 92.383 99.5145 111.85 108.314 103.05M127.814 123.55C114.814 129.55 114.314 140.05 114.814 148.55C115.214 155.35 120.314 159.05 122.814 160.05M127.814 123.55C134.481 121.55 148.614 122.15 151.814 140.55C155.814 163.55 129.314 162.55 122.814 160.05M121.261 70.5497C122.213 63.0682 122.174 53.9198 120.314 43.0496C119.388 37.6326 117.802 33.183 115.751 29.5497M121.261 70.5497C129.445 71.383 146.814 65.9497 150.814 37.5497C154.814 9.14966 142.148 1.38299 135.314 1.04965C130.148 0.573629 116.614 3.31438 103.814 18.0856M103.814 18.0856C108.414 20.3652 112.623 24.0079 115.751 29.5497M115.751 29.5497C117.772 22.7163 124.914 9.04965 137.314 9.04965M84.8145 125.05C85.4146 128.05 87.5363 132.383 91.8145 132.181M97.8145 129.55C95.4641 131.34 93.4765 132.103 91.8145 132.181M91.8145 132.181C90.4811 138.304 88.8145 152.75 92.8145 161.55M92.8145 161.55C97.8145 172.55 119.814 166.05 122.814 160.05M92.8145 161.55C86.4814 166.716 70.1152 173.65 55.3149 160.05M55.3149 160.05C52.6481 163.05 44.2145 167.55 31.8145 161.55C19.4145 155.55 22.6478 142.716 25.8145 137.05C28.4811 132.05 37.8093 121.996 51.3145 128.05M55.3149 160.05C59.3153 157.226 65.8145 134.55 51.3145 128.05M51.3145 128.05C54.4811 125.348 61.5145 116.454 64.3145 102.497M64.3145 102.497C61.4806 101.038 58.9476 98.9929 56.1598 96.5495C51.9694 92.8767 42.8496 77.3999 38.8145 61.9327M78.8145 87.0497C80.6478 84.2163 86.3145 79.5497 94.3145 83.5497M81.8145 91.5497C83.8145 89.7163 88.7145 86.5497 92.3145 88.5497M86.3145 96.5495C87.3145 95.5496 90.1145 93.9497 93.3145 95.5497M38.8145 61.9327C35.9811 58.4717 25.9145 52.0497 8.31445 54.0497" stroke="white" stroke-width="2"/>
<circle cx="65.8145" cy="84.0496" r="3.5" fill="white"/>
<circle cx="105.814" cy="76.0496" r="3.5" fill="white"/>
</svg>
